<svg width="32" height="33" viewBox="0 0 32 33" fill="none" xmlns="http://www.w3.org/2000/svg">
<path d="M17.954 0.252475L13.3297 8.26387H29.9186C27.6748 4.17523 23.1849 0.837205 17.954 0.252475ZM3.22786 6.50218L7.85 14.5146L16.1444 0.14074C11.4833 0.0403586 6.34943 2.26159 3.22786 6.50218ZM1.27408 22.3872L10.5205 22.3883L2.22601 8.01441C-0.191278 12.0027 -0.835843 17.5624 1.27408 22.3872ZM14.0464 32.0225L18.6707 24.0111H2.08184C4.32564 28.0998 8.81552 31.4378 14.0464 32.0225ZM28.7726 25.7729L24.1505 17.7604L15.856 32.1342C20.5171 32.2346 25.651 30.0134 28.7726 25.7729ZM30.7263 9.88784L21.4799 9.88673L29.7744 24.2606C32.1917 20.2723 32.8363 14.7125 30.7263 9.88784Z" fill="#23D997"/>
</svg>
