<svg width="33" height="32" viewBox="0 0 33 32" fill="none" xmlns="http://www.w3.org/2000/svg">
<path d="M23.8685 9.41447C23.8685 9.15312 23.7542 8.95469 23.5283 8.81919C23.3976 8.7391 23.178 8.66455 22.8717 8.59305V10.2411C23.2922 10.225 23.5821 10.094 23.7416 9.84959C23.827 9.72588 23.8685 9.57858 23.8685 9.41447Z" fill="#23D997"/>
<path d="M22.5227 6.4736C22.1964 6.48433 21.9679 6.56745 21.8284 6.72423C21.6891 6.88101 21.6212 7.04529 21.6212 7.21601C21.6212 7.42302 21.7015 7.58409 21.8635 7.70243C22.0281 7.81863 22.2464 7.90086 22.5201 7.94663L22.5227 6.4736Z" fill="#23D997"/>
<path d="M22.6935 12.0523C25.0346 12.0523 26.9352 10.4395 26.9352 8.45023C26.9352 6.46094 25.0346 4.84705 22.6935 4.84705C20.3524 4.84705 18.4543 6.46094 18.4543 8.45023C18.4541 10.4406 20.3509 12.0523 22.6935 12.0523ZM21.3426 8.08859C21.0879 7.88802 20.9585 7.60968 20.9585 7.25447C20.9585 6.93663 21.094 6.65078 21.3689 6.39587C21.6439 6.14095 22.0255 6.01081 22.5227 6.00759V5.59053H22.8717V6.00115C23.3625 6.02993 23.7366 6.15257 23.9989 6.36816C24.2587 6.58464 24.3957 6.86834 24.4081 7.22355H23.7629C23.7452 7.06463 23.6938 6.92805 23.611 6.81292C23.4565 6.6018 23.2093 6.49079 22.8679 6.48114V8.00761C23.4391 8.14311 23.827 8.27111 24.0328 8.38945C24.3641 8.58574 24.5299 8.87694 24.5299 9.26093C24.5299 9.81671 24.3166 10.2112 23.891 10.446C23.6549 10.5761 23.3147 10.6614 22.8704 10.703V11.311H22.5214V10.703C21.8072 10.6635 21.3201 10.4481 21.0639 10.0577C20.9246 9.84764 20.8543 9.56161 20.8543 9.2023H21.5084C21.5297 9.48814 21.5825 9.6973 21.6679 9.82958C21.8198 10.0654 22.1072 10.1977 22.5239 10.2275V8.51977C21.9879 8.43307 21.5951 8.28917 21.3426 8.08859Z" fill="#23D997"/>
<path d="M15.4314 3.42512C15.4314 3.22991 15.346 3.08064 15.1766 2.97821C15.0788 2.9185 14.9143 2.86309 14.6833 2.80856V4.0449C14.9971 4.0331 15.218 3.93496 15.3373 3.75155C15.3988 3.65859 15.4314 3.5499 15.4314 3.42512Z" fill="#23D997"/>
<path d="M14.4209 1.22131C14.176 1.22989 14.0041 1.29175 13.9 1.41009C13.7971 1.52736 13.7443 1.65124 13.7443 1.77924C13.7443 1.93494 13.8057 2.05543 13.9275 2.1441C14.0493 2.23151 14.2137 2.29337 14.4209 2.32751V1.22131Z" fill="#23D997"/>
<path d="M14.5477 5.40478C16.3027 5.40478 17.7274 4.19418 17.7274 2.70185C17.7274 1.20952 16.3025 0 14.5477 0C12.7929 0 11.3678 1.20952 11.3678 2.70185C11.3678 4.19526 12.7927 5.40478 14.5477 5.40478ZM13.5345 2.43085C13.3425 2.2805 13.2472 2.07242 13.2472 1.8057C13.2472 1.56777 13.35 1.35236 13.556 1.16144C13.762 0.970515 14.0506 0.872373 14.4196 0.870228V0.557925H14.682V0.866116C15.0484 0.888462 15.331 0.979096 15.5294 1.14124C15.724 1.30338 15.8268 1.51664 15.8357 1.78229H15.3512C15.3373 1.66394 15.3009 1.56044 15.2382 1.4741C15.1189 1.31625 14.9357 1.23294 14.6822 1.22561V2.37007C15.1103 2.47143 15.3989 2.56742 15.5534 2.65698C15.8005 2.80411 15.9261 3.02184 15.9261 3.31091C15.9261 3.72796 15.7667 4.02346 15.448 4.19937C15.271 4.29644 15.016 4.36043 14.6822 4.39243V4.849H14.4198V4.39243C13.8825 4.36258 13.5173 4.20151 13.3277 3.90816C13.2223 3.75031 13.1683 3.53597 13.1683 3.26604H13.6616C13.6755 3.48038 13.7157 3.63715 13.7796 3.73637C13.8951 3.91352 14.1097 4.01256 14.4223 4.03508V2.75405C14.0203 2.68898 13.7241 2.58137 13.5345 2.43085Z" fill="#23D997"/>
<path d="M12.3722 15.4475C11.6693 15.3439 11.1659 15.089 10.8846 14.6623C10.7014 14.3902 10.6122 14.0213 10.6122 13.5561H11.4558C11.4821 13.9263 11.5536 14.1961 11.6643 14.3668C11.8614 14.6729 12.2291 14.8436 12.7677 14.882V12.673C12.0785 12.562 11.569 12.3775 11.2399 12.1183C10.9098 11.858 10.7453 11.4985 10.7453 11.0398C10.7453 10.6292 10.9235 10.2601 11.2763 9.92933C11.6317 9.60076 12.1275 9.43326 12.7677 9.42701V8.88839H13.2209V9.4195C13.8535 9.45793 14.3393 9.61578 14.6759 9.89412C15.016 10.1735 15.193 10.5416 15.2094 10.9992H14.3759C14.3521 10.7944 14.2879 10.6174 14.18 10.4681C13.9791 10.1961 13.6604 10.0521 13.2209 10.0393V12.0127C13.9591 12.1887 14.4573 12.3539 14.7221 12.5066C15.1528 12.7604 15.3661 13.1358 15.3661 13.633C15.3661 14.352 15.0912 14.8618 14.5427 15.1646C14.3155 15.2884 13.9917 15.3706 13.6139 15.4324C14.7123 15.4644 15.8056 15.6148 16.86 15.8847C17.8556 15.0399 18.473 13.874 18.473 12.5845C18.473 10.0117 16.0164 7.92645 12.9911 7.92645C9.9646 7.92645 7.50925 10.0117 7.50925 12.5845C7.50925 13.9136 8.16584 15.1094 9.21775 15.9573C10.2394 15.6747 11.3014 15.505 12.3722 15.4475Z" fill="#23D997"/>
<path d="M11.9228 11.6213C12.1313 11.7727 12.4161 11.8784 12.7715 11.9381V10.033C12.3522 10.0469 12.0522 10.1545 11.874 10.3573C11.6945 10.56 11.6066 10.7722 11.6066 10.994C11.6064 11.2607 11.7118 11.4688 11.9228 11.6213Z" fill="#23D997"/>
<path d="M14.0719 13.0634C13.9023 12.961 13.6213 12.8639 13.222 12.7722V14.9035C13.7656 14.8811 14.1396 14.7125 14.3466 14.3968C14.4558 14.2347 14.5099 14.0459 14.5099 13.8335C14.5101 13.4944 14.3643 13.2395 14.0719 13.0634Z" fill="#23D997"/>
<path d="M31.787 24.8213C32.456 24.2271 32.5176 23.1275 32.4084 21.6565C31.6214 21.6105 30.4601 21.7226 30.0496 21.6565C29.0529 19.9711 27.6206 18.657 25.5807 17.8581C25.6497 16.7583 25.8231 15.7472 26.5712 15.2213C24.7523 15.1146 23.2095 16.1611 22.2292 17.12C21.3466 16.3423 20.0425 15.7226 18.5046 15.2864L17.5492 16.7306C14.706 15.8976 11.5864 15.9072 8.76081 16.7551L7.5143 15.3321C7.51178 15.3279 7.50673 15.3236 7.50294 15.3203C5.55334 15.8686 3.76216 16.7272 2.36629 17.9636C1.4587 17.9049 1.56158 16.3411 2.73908 16.593C0.823565 15.4836 -0.233598 18.5247 1.6207 18.913C0.075451 20.7893 -0.0726572 24.8171 1.99349 26.2954C2.29476 28.5162 2.75675 30.6015 4.02829 32H8.19846C8.08927 31.2789 7.97882 30.5109 8.07412 29.6703C10.6086 30.1589 13.6177 30.3017 16.6366 30.0928C17.1024 30.7488 17.553 31.4176 18.1103 31.9989H22.2416C22.0922 31.0699 21.9252 30.0971 22.2239 29.1425C23.2182 28.9835 28.331 27.8795 31.787 24.8213ZM26.0878 20.112C26.6552 20.112 27.1134 20.5024 27.1134 20.9824C27.1134 21.4656 26.6552 21.8549 26.0878 21.8549C25.5229 21.8549 25.0622 21.4634 25.0622 20.9824C25.0609 20.5035 25.5229 20.112 26.0878 20.112Z" fill="#23D997"/>
</svg>
