<svg width="32" height="32" viewBox="0 0 32 32" fill="none" xmlns="http://www.w3.org/2000/svg">
<path d="M18.5098 6.48907C19.2592 5.80587 19.7333 4.82507 19.7333 3.73333C19.7333 1.6752 18.0586 0 16 0C13.9413 0 12.2666 1.6752 12.2666 3.73333C12.2666 4.82507 12.7408 5.80587 13.4901 6.48907C11.2773 6.91573 9.59998 8.86453 9.59998 11.2V13.3333C9.59998 13.6283 9.83891 13.8667 10.1333 13.8667H21.8666C22.161 13.8667 22.4 13.6283 22.4 13.3333V11.2C22.4 8.86453 20.7226 6.91573 18.5098 6.48907ZM13.3333 3.73333C13.3333 2.26293 14.5296 1.06667 16 1.06667C17.4704 1.06667 18.6666 2.26293 18.6666 3.73333C18.6666 5.20373 17.4704 6.4 16 6.4C14.5296 6.4 13.3333 5.20373 13.3333 3.73333ZM21.3333 12.8H10.6666V11.2C10.6666 9.14187 12.3413 7.46667 14.4 7.46667H17.6C19.6586 7.46667 21.3333 9.14187 21.3333 11.2V12.8Z" fill="#23D997"/>
<path d="M8.90987 24.6224C9.6592 23.9392 10.1333 22.9584 10.1333 21.8667C10.1333 19.8085 8.45867 18.1333 6.4 18.1333C4.34133 18.1333 2.66667 19.8085 2.66667 21.8667C2.66667 22.9584 3.1408 23.9392 3.89013 24.6224C1.67733 25.0491 0 26.9979 0 29.3333V31.4667C0 31.7616 0.238933 32 0.533333 32H12.2667C12.5611 32 12.8 31.7616 12.8 31.4667V29.3333C12.8 26.9979 11.1227 25.0491 8.90987 24.6224ZM3.73333 21.8667C3.73333 20.3963 4.9296 19.2 6.4 19.2C7.8704 19.2 9.06667 20.3963 9.06667 21.8667C9.06667 23.3371 7.8704 24.5333 6.4 24.5333C4.9296 24.5333 3.73333 23.3371 3.73333 21.8667ZM11.7333 30.9333H1.06667V29.3333C1.06667 27.2752 2.74133 25.6 4.8 25.6H8C10.0587 25.6 11.7333 27.2752 11.7333 29.3333V30.9333Z" fill="#23D997"/>
<path d="M28.1099 24.6224C28.8592 23.9392 29.3333 22.9584 29.3333 21.8667C29.3333 19.8085 27.6587 18.1333 25.6 18.1333C23.5413 18.1333 21.8667 19.8085 21.8667 21.8667C21.8667 22.9584 22.3408 23.9392 23.0901 24.6224C20.8773 25.0491 19.2 26.9979 19.2 29.3333V31.4667C19.2 31.7616 19.4389 32 19.7333 32H31.4667C31.7611 32 32 31.7616 32 31.4667V29.3333C32 26.9979 30.3227 25.0491 28.1099 24.6224ZM22.9333 21.8667C22.9333 20.3963 24.1296 19.2 25.6 19.2C27.0704 19.2 28.2667 20.3963 28.2667 21.8667C28.2667 23.3371 27.0704 24.5333 25.6 24.5333C24.1296 24.5333 22.9333 23.3371 22.9333 21.8667ZM30.9333 30.9333H20.2667V29.3333C20.2667 27.2752 21.9413 25.6 24 25.6H27.2C29.2587 25.6 30.9333 27.2752 30.9333 29.3333V30.9333Z" fill="#23D997"/>
<path d="M3.21013 17.0496L2.14453 17.0912C2.15893 17.4587 2.18826 17.8309 2.232 18.1968L3.2912 18.0699C3.25066 17.7323 3.22346 17.3888 3.21013 17.0496Z" fill="#23D997"/>
<path d="M2.23146 14.8784C2.18826 15.2421 2.1584 15.6139 2.14453 15.9835L3.21013 16.0251C3.22346 15.6837 3.25066 15.3408 3.29066 15.0043L2.23146 14.8784Z" fill="#23D997"/>
<path d="M7.59413 5.50293C7.30239 5.72533 7.01493 5.9632 6.7392 6.21066L7.45226 7.00426C7.70613 6.776 7.97119 6.55626 8.24052 6.35146L7.59413 5.50293Z" fill="#23D997"/>
<path d="M3.44903 10.6293C3.29223 10.9627 3.14716 11.3061 3.01703 11.6523L4.01543 12.0272C4.13543 11.7083 4.26929 11.3915 4.41383 11.0848L3.44903 10.6293Z" fill="#23D997"/>
<path d="M2.66828 12.7056C2.56695 13.0581 2.47895 13.4213 2.40588 13.7829L3.45175 13.9936C3.51895 13.6603 3.60002 13.3253 3.69388 12.9995L2.66828 12.7056Z" fill="#23D997"/>
<path d="M5.94507 6.98507C5.6896 7.25387 5.44427 7.53387 5.21387 7.81814L6.0432 8.48908C6.25547 8.22667 6.48267 7.96747 6.7184 7.71947L5.94507 6.98507Z" fill="#23D997"/>
<path d="M9.45758 4.30454C9.13492 4.47681 8.81332 4.66614 8.50079 4.86721L9.07892 5.76428C9.36692 5.57814 9.66345 5.40374 9.95998 5.24534L9.45758 4.30454Z" fill="#23D997"/>
<path d="M4.55147 8.70667C4.34294 9.0112 4.14454 9.32693 3.96161 9.6464L4.88694 10.1765C5.05547 9.88213 5.23894 9.5904 5.43147 9.30986L4.55147 8.70667Z" fill="#23D997"/>
<path d="M13.4731 29.0837L13.2624 30.1296C13.6213 30.2021 13.9904 30.2603 14.3589 30.3035L14.4827 29.2443C14.144 29.2043 13.8037 29.1504 13.4731 29.0837Z" fill="#23D997"/>
<path d="M18.5605 29.0773C18.2293 29.1445 17.8896 29.1995 17.5493 29.2411L17.6779 30.3003C18.0459 30.2555 18.4139 30.1957 18.7723 30.1232L18.5605 29.0773Z" fill="#23D997"/>
<path d="M16.5296 29.3227C16.1888 29.336 15.8442 29.3376 15.5056 29.3243L15.4634 30.3899C15.641 30.3974 15.8202 30.4006 16.0016 30.4006C16.1925 30.3995 16.3829 30.3958 16.5722 30.3883L16.5296 29.3227Z" fill="#23D997"/>
<path d="M25.2629 6.21494L24.5504 7.00854C24.8043 7.2368 25.0507 7.4768 25.2837 7.72213L26.0581 6.9888C25.8053 6.72214 25.5381 6.46187 25.2629 6.21494Z" fill="#23D997"/>
<path d="M26.7883 7.82133L25.9589 8.49226C26.1717 8.75519 26.3776 9.03199 26.5707 9.31359L27.4501 8.71039C27.2411 8.40586 27.0187 8.10666 26.7883 7.82133Z" fill="#23D997"/>
<path d="M29.8555 15.9851L28.7899 16.0267C28.7968 16.1947 28.8 16.3643 28.8 16.5333C28.8 16.7067 28.7968 16.8789 28.7899 17.0512L29.8555 17.0928C29.8629 16.9072 29.8667 16.7205 29.8667 16.5323C29.8667 16.3493 29.8629 16.1664 29.8555 15.9851Z" fill="#23D997"/>
<path d="M28.0406 9.64906L27.1147 10.1797C27.2838 10.4747 27.4427 10.7803 27.5878 11.0875L28.5526 10.632C28.3958 10.2992 28.2235 9.96853 28.0406 9.64906Z" fill="#23D997"/>
<path d="M28.984 11.6544L27.9856 12.0299C28.1051 12.3477 28.2128 12.6747 28.3067 13.0011L29.3323 12.7072C29.2309 12.3531 29.1136 11.9989 28.984 11.6544Z" fill="#23D997"/>
<path d="M29.5936 13.7851L28.5483 13.9952C28.6155 14.3291 28.6699 14.6693 28.7093 15.0064L29.7685 14.8805C29.7253 14.5157 29.6667 14.1472 29.5936 13.7851Z" fill="#23D997"/>
<path d="M23.5024 4.86932L22.9248 5.76639C23.2096 5.94986 23.4912 6.14772 23.7627 6.35519L24.4101 5.50666C24.1163 5.28212 23.8112 5.06826 23.5024 4.86932Z" fill="#23D997"/>
<path d="M21.5488 3.82186L21.1216 4.79893C21.4325 4.93493 21.7418 5.08532 22.0421 5.24639L22.5466 4.30666C22.2218 4.13173 21.8858 3.96853 21.5488 3.82186Z" fill="#23D997"/>
</svg>
